<svg xmlns="http://www.w3.org/2000/svg" viewBox="0 0 300 300">
<path fill="#764ABC" d="M0.999998,175 C1,159.312439 1,143.624878 1.385879,127.659622 C2.177428,126.543427 2.825825,125.739952 2.952660,124.861198 C5.147472,109.654839 10.252398,95.311897 17.196615,81.786453 C26.931488,62.825588 40.462601,46.724941 57.142727,33.373295 C77.048973,17.439289 99.454277,7.031958 124.710289,2.924081 C125.555481,2.786612 126.240379,1.663613 127,0.999999 C142.687561,1 158.375122,1 174.341385,1.386492 C175.458694,2.178143 176.262329,2.825608 177.141113,2.952419 C192.335983,5.145101 206.658768,10.254465 220.182373,17.186388 C239.156525,26.912132 255.24791,40.446728 268.60495,57.120945 C284.553131,77.029831 294.956879,99.448128 299.075897,124.710869 C299.213715,125.556015 300.336395,126.240578 301,127 C301,142.687561 301,158.375122 300.613739,174.34079 C299.822083,175.457428 299.174042,176.261002 299.047363,177.139725 C296.856079,192.337387 291.745209,206.662567 284.811707,220.187454 C275.085175,239.160538 261.549774,255.252304 244.874908,268.608093 C224.966873,284.553528 202.551285,294.959869 177.289062,299.075409 C176.443954,299.213074 175.759384,300.336212 175,301 C159.312439,301 143.624878,301 127.659454,300.61377 C126.543968,299.822113 125.741623,299.175446 124.863495,299.046997 C109.688141,296.827789 95.381355,291.737213 81.857018,284.812378 C62.876984,275.094116 46.792702,261.57666 33.434677,244.914322 C17.467728,224.997696 7.067013,202.558075 2.92452,177.285049 C2.786154,176.440903 1.663723,175.758041 0.999998,175z"/>
<path fill="#FEFEFF" d="M140.161407,62.163612 C151.402847,51.678726 150.375885,49.996151 161.581924,62.451191 C181.298431,84.365265 192.051483,110.197929 191.911865,140.123413 C191.903549,141.90567 193.219208,144.059967 194.558136,145.404388 C197.127808,147.984604 200.146057,150.120728 202.997223,152.417465 C210.846405,158.740356 213.910309,166.895035 212.045044,176.762741 C210.285248,186.072372 208.400497,195.362091 206.355515,204.612991 C204.617035,212.477264 198.079086,214.645645 191.831894,209.53183 C185.414658,204.278854 179.08429,198.919739 172.623184,193.529709 C158.197418,205.031418 143.871796,205.010941 129.152039,193.658615 C123.653999,198.384995 118.060463,203.057236 112.620575,207.901978 C104.585556,215.057953 98.313461,213.123627 95.922935,202.661697 C94.108437,194.720734 92.324165,186.771744 90.39753,178.857727 C87.724014,167.875732 90.296043,158.333755 99.612488,151.926819 C107.426949,146.552795 110.040588,140.37088 110.44722,130.707169 C111.549217,104.51796 122.830238,82.059158 140.161407,62.163612 M149.678421,133.287582 C156.790375,133.670975 162.302841,130.874542 165.970367,124.779846 C169.7771,118.453812 168.855469,110.268997 163.934616,104.922493 C158.549866,99.071953 150.633255,97.473709 143.469376,100.790863 C136.505722,104.015297 132.526703,110.845161 133.411469,118.054871 C134.41597,126.240105 139.979965,131.716293 149.678421,133.287582z"/>
<path fill="#FDFDFE" d="M174.171692,226.878021 C174.171646,227.855011 174.303986,228.400665 174.149536,228.847137 C173.302444,231.296127 172.385086,233.720795 171.491821,236.153809 C169.261566,235.093185 167.011871,234.070694 164.812088,232.950241 C164.090622,232.582748 163.498642,231.960999 162.442169,231.140961 C160.179779,235.525162 158.221786,239.850464 155.757401,243.864929 C154.574417,245.792038 152.37944,248.445496 150.742676,248.377151 C149.017136,248.305099 147.039047,245.609726 145.831421,243.653061 C143.485748,239.852356 141.601913,235.766586 139.209702,231.192749 C137.532837,232.66246 136.16951,234.023605 134.640976,235.163162 C131.227921,237.707626 127.796356,236.346329 127.59687,232.155716 C127.327782,226.503326 127.42794,220.826996 127.547234,215.164658 C127.631851,211.147934 130.1716,209.524933 133.590485,211.073471 C145.269135,216.363205 156.711746,216.158844 168.368271,211.005203 C171.465042,209.636017 173.992767,211.031052 174.089493,214.905731 C174.185089,218.735764 174.149658,222.569046 174.171692,226.878021z"/>
<path fill="#7A4FBE" d="M149.241119,133.245972 C139.979965,131.716293 134.41597,126.240105 133.411469,118.054871 C132.526703,110.845161 136.505722,104.015297 143.469376,100.790863 C150.633255,97.473709 158.549866,99.071953 163.934616,104.922493 C168.855469,110.268997 169.7771,118.453812 165.970367,124.779846 C162.302841,130.874542 156.790375,133.670975 149.241119,133.245972 M152.101685,108.166824 C145.032669,108.387154 140.721375,113.048706 142.524948,118.636436 C143.85025,122.742393 146.840912,124.997795 151.111343,124.803154 C155.137253,124.619659 157.922913,122.290848 158.931458,118.311172 C160.04689,113.909653 158.095398,110.862839 152.101685,108.166824z"/>
<path fill="#FAF9FD" d="M152.477814,108.266907 C158.095398,110.862839 160.04689,113.909653 158.931458,118.311172 C157.922913,122.290848 155.137253,124.619659 151.111343,124.803154 C146.840912,124.997795 143.85025,122.742393 142.524948,118.636436 C140.721375,113.048706 145.032669,108.387154 152.477814,108.266907z"/>
</svg>
