<svg viewBox="20 20 50 50" xmlns="http://www.w3.org/2000/svg"><path d="M64.076 59c1.062 0 1.924.862 1.924 1.924v1.228A3.848 3.848 0 0 1 62.152 66H47.098a3.848 3.848 0 0 1-3.848-3.848v-1.228c0-1.062.862-1.924 1.924-1.924h18.902Zm-1.924-21A3.848 3.848 0 0 1 66 41.848v9.978a1.924 1.924 0 0 1-1.924 1.924H27.848A3.848 3.848 0 0 1 24 49.902v-9.978c0-1.063.861-1.924 1.924-1.924h36.228Zm-19.25-14a3.848 3.848 0 0 1 3.848 3.848v2.978a1.924 1.924 0 0 1-1.924 1.924H25.924A1.924 1.924 0 0 1 24 30.826v-2.978A3.848 3.848 0 0 1 27.848 24h15.054Z" fill="#000" fill-rule="nonzero"/></svg>
