<svg xmlns="http://www.w3.org/2000/svg" viewBox="0 0 80 80" fill-rule="evenodd">
  <path d="M26 47.828C26 44.599 28.676 42 32 42s6 2.599 6 5.828v14.345C38 65.401 35.324 68 32 68s-6-2.599-6-5.828z" fill="#9CA3AF"/>
  <path d="M47.828 54C44.599 54 42 51.324 42 48s2.599-6 5.828-6h14.345C65.401 42 68 44.676 68 48s-2.599 6-5.828 6z" fill="#9CA3AF"/>
  <path d="M42 17.828C42 14.599 44.676 12 48 12s6 2.599 6 5.828v14.345C54 35.401 51.324 38 48 38s-6-2.599-6-5.828z" fill="#9CA3AF"/>
  <path d="M17.828 38C14.599 38 12 35.324 12 32s2.599-6 5.828-6h14.345C35.401 26 38 28.676 38 32s-2.599 6-5.828 6z" fill="#9CA3AF"/>
  <path d="M42 62c0 3.324 2.676 6 6 6s6-2.676 6-6-2.676-6-6-6h-6z" fill="#9CA3AF"/>
  <path d="M62 38h-6v-6c0-3.324 2.676-6 6-6s6 2.676 6 6-2.676 6-6 6z" fill="#9CA3AF"/>
  <path d="M18 42h6v6c0 3.324-2.676 6-6 6s-6-2.676-6-6 2.676-6 6-6z" fill="#9CA3AF"/>
  <path d="M38 18v6h-6c-3.324 0-6-2.676-6-6s2.676-6 6-6 6 2.676 6 6z" fill="#9CA3AF"/>
</svg>
